<svg width="96" height="77" viewBox="0 0 96 77" xmlns="http://www.w3.org/2000/svg">
  <title>
    expresspost
  </title>
  <g fill="none" fill-rule="evenodd">
    <path d="M96 73.7499788C96 74.9877021 94.9607075 76 93.6899783 76H21.31002173C20.03929247 76 19 74.9877021 19 73.7499788V3.249492C19 2.01229786 20.03929247 1 21.31002173 1H93.6899783C94.9607075 1 96 2.01229786 96 3.249492v70.5004868z" fill="#043458"/>
    <path d="M93.659978 1H57v75h36.659978C94.9472102 76 96 74.9877021 96 73.7499788V3.25002117C96 2.01282703 94.9472102 1 93.659978 1" fill="#003359"/>
    <path d="M23 73h68V5H23v68zM92.6899783 0H20.31002173C19.03983575 0 18 1.03929247 18 2.31002173V74.6899783C18 75.9607075 19.03983575 77 20.31002173 77H92.6899783C93.9607075 77 95 75.9607075 95 74.6899783V2.31002173C95 1.03929247 93.9607075 0 92.6899783 0z" fill="#190B12"/>
    <path d="M59 22.5C59 29.9562075 65.71558593 36 74 36V9c-8.28441407 0-15 6.04379252-15 13.5" fill="#7DB5DA"/>
    <path d="M87 22.5C87 29.9562075 80.2839417 36 72 36V9c8.2839417 0 15 6.04379252 15 13.5" fill="#F3F4F5"/>
    <path stroke="#003359" stroke-width="4" stroke-linecap="round" d="M79 16l-7 8.1777778V32"/>
    <path d="M0 75.5404922C0 76.3432456.64502112 77 1.43343286 77H53.5660939C54.3545056 77 55 76.3432456 55 75.5404922V22.45854414C55 21.6562726 54.3545056 21 53.5660939 21H1.43343286C.64502112 21 0 21.6562726 0 22.45854414V75.5404922z" fill="#F3F1EE"/>
    <path fill="#FFD300" d="M4 73h47V44H4"/>
    <path fill="#FEFEFE" d="M7 70h23V53H7"/>
    <path fill="#D0D5D8" d="M9 68h19v-3H9m0-2h19v-3H9m0-2h19v-3H9"/>
    <path fill="#EC1D24" d="M7 50h30v-3H7"/>
    <path d="M52 35.5200635C52 35.7846371 51.7851568 36 51.5205715 36H40.4799577C40.2148432 36 40 35.7846371 40 35.5200635v-11.040127C40 24.2153629 40.2148432 24 40.4799577 24h11.0406138C51.7851568 24 52 24.2153629 52 24.4799365v11.040127z" fill="#D91A31"/>
    <path d="M42 29.99971c0 1.8287537 1.2462702 3.3883854 3 4.00029v-8c-1.7537298.6119046-3 2.17095628-3 3.99971M46.3034102 26c-.1023069 0-.2036108.0037992-.3034102.0119403v.2816825h.0185557c1.4082246.0108548 2.5426279 1.1734057 2.5320963 2.59647218C48.5416249 30.30719132 47.4007021 31.4474898 46 31.4458616v2.5416554c.0997994.0092266.2011033.012483.3034102.012483C48.3440321 34 50 32.2089552 50 29.99945726 50 27.79050204 48.3440321 26 46.3034102 26" fill="#FEFEFE"/>
  </g>
</svg>
