<svg width="96" height="77" viewBox="0 0 96 77" xmlns="http://www.w3.org/2000/svg">
  <title>
    printshipping
  </title>
  <g fill="none" fill-rule="evenodd">
    <path d="M96 74.6383834C96 75.937354 94.9373465 77 93.6383668 77H21.36108994C20.06211018 77 19 75.937354 19 74.6383834V2.3610733C19 1.06264595 20.06211018 0 21.36108994 0H93.6383668C94.9373465 0 96 1.06264596 96 2.3610733v72.2773101z" fill="#C57C5A"/>
    <path fill="#613729" d="M50 13h8V0h-8"/>
    <path fill="#4F2C20" d="M57 13h8V0h-8"/>
    <g fill="#9D5F47">
      <path d="M86.3900649 14c-1.0683981 0-2.1725073-.31602213-3.2531353-.62497873-2.0414035-.5819432-4.15227248-1.18893692-6.00778258.31152588L77 11.9927456c1.9425865-1.56854886 4.0989505-.9519203 6.1838922-.357773 1.6818465.48109872 3.270257.93586228 4.7500667.33786105L88 13.70645912C87.4790092 13.91649822 86.9389398 14 86.3900649 14"/>
      <path d="M86.3900649 17c-1.0683981 0-2.1725073-.31601325-3.2531353-.62496116-2.0414035-.58192684-4.15227248-1.1889035-6.00778258.31151712L77 14.99280202c1.9425865-1.5704317 4.0989505-.94996666 6.1838922-.35776297 1.6818465.4798006 3.270257.935836 4.7500667.33785157L88 16.70646737C87.4790092 16.91650057 86.9389398 17 86.3900649 17"/>
      <path d="M78 14c0 1.65672432-1.34327568 3-3 3s-3-1.34327568-3-3 1.34327568-3 3-3 3 1.34327568 3 3"/>
      <path d="M75 9.0909091c-2.70726197 0-4.9090909 2.20276673-4.9090909 4.90882684 0 2.70658823 2.20182893 4.90935496 4.9090909 4.90935496s4.9090909-2.20276673 4.9090909-4.90935496c0-2.7060601-2.20182893-4.90882685-4.9090909-4.90882685M75 20c-3.30827887 0-6-2.6918433-6-6.00027234C69 10.6918433 71.69172113 8 75 8c3.3077342 0 6 2.6918433 6 5.99972766C81 17.3081567 78.3077342 20 75 20"/>
    </g>
    <path d="M55 67.7532932C55 68.4388252 54.4199298 69 53.7113151 69H28.28868485C27.5795301 69 27 68.4388252 27 67.7532932V51.2472293C27 50.5616973 27.5795301 50 28.28868485 50H53.7113151C54.4199298 50 55 50.5616973 55 51.2472293v16.5060639z" fill="#FFF"/>
    <path fill="#D0D5D8" d="M28 56h23v-3H28m0 9h23v-3H28m0 8h23v-3H28"/>
    <g fill-rule="nonzero">
      <path fill="#F3F1EE" d="M18.6 22H45v13H12v-6.93333333"/>
      <path d="M58 74.6619818C58 75.9530806 56.9606988 77 55.6805596 77H2.3204397C1.03830184 77 0 75.9530806 0 74.6619818V36.3380182C0 35.0469193 1.03830183 34 2.3204397 34h53.3601199C56.9606988 34 58 35.0469193 58 36.3380182v38.3239636" fill="#535F67"/>
      <path d="M12 28h7v-6" fill="#66727A"/>
      <path d="M50.000744 45C51.1041667 45 52 44.1047442 52 42.9996279 52 41.8952558 51.1041667 41 50.000744 41 48.8958333 41 48 41.8952558 48 42.9996279 48 44.1047442 48.8958333 45 50.000744 45" fill="#FEE07F"/>
      <path d="M42 45c1.1041667 0 2-.8952558 2-2.0003721C44 41.8952558 43.1041667 41 42 41c-1.1041666 0-2 .8952558-2 1.9996279C40 44.1047442 40.8958334 45 42 45" fill="#D0D5D8"/>
      <path fill="#8A939D" d="M12 57h34v20H12"/>
      <path d="M29 55.5000001C29 54.6713836 28.552686 54 28 54c-.5516529 0-1 .6713836-1 1.5000001C27 56.3286164 27.4483471 57 28 57c.552686 0 1-.6713836 1-1.4999999" fill="#00A3DA"/>
      <path fill="#8A939D" d="M9 51h40v6H9"/>
      <path fill="#2D3238" d="M0 49h58v3H0"/>
      <path fill="#F3F1EE" d="M15 57h28v20H15z"/>
      <path fill="#D0D5D8" d="M20 60h17v2H20zm0 3h17v2H20zm0 3h13v2H20z"/>
      <path fill="#DC1928" d="M20 71h9v2h-9z"/>
    </g>
  </g>
</svg>
